<svg width="361" height="87" fill="none" xmlns="http://www.w3.org/2000/svg"><g filter="url(#filter0_i_12_883)"><rect width="361" height="87" rx="11" fill="#2194FF"/></g><rect x="2" y="2" width="357" height="83" rx="9" stroke="url(#paint0_linear_12_883)" stroke-width="4"/><path opacity=".31" d="M352 30.162v-11.82c-.065-2.248-.864-4.377-2.227-5.935-1.362-1.558-3.181-2.421-5.069-2.407H16.019a6.046 6.046 0 00-2.683.632 7.066 7.066 0 00-2.277 1.808 8.602 8.602 0 00-1.522 2.707A9.755 9.755 0 009 18.343V54s44.087-18.163 137.938-24.408c87.243-5.804 205.062.57 205.062.57z" fill="url(#paint1_linear_12_883)"/><path opacity=".15" d="M11 79h333.97a6.069 6.069 0 002.69-.632 7.06 7.06 0 002.28-1.808 8.602 8.602 0 001.525-2.709 9.734 9.734 0 00.535-3.195V53s-13.984 16.448-89.869 19.852C195.787 75.846 11 79 11 79z" fill="#fff"/><g filter="url(#filter1_d_12_883)"><path d="M34.132 47.52c4.08.24 6.96.36 8.64.36.368 0 .656-.104.864-.312.224-.224.336-.52.336-.888v-.96c0-.96-.48-1.44-1.44-1.44h-5.76v-3.36h5.28c.96 0 1.44-.48 1.44-1.44V39c0-.96-.48-1.44-1.44-1.44h-7.68V34.2h8.88c1.568 0 2.72.36 3.456 1.08.736.704 1.104 1.784 1.104 3.24 0 .96-.224 1.744-.672 2.352a3.42 3.42 0 01-1.728 1.248c1.296.352 2.176 1.216 2.64 2.592.16.496.24 1.072.24 1.728v.24c0 1.568-.368 2.72-1.104 3.456-.736.736-1.888 1.104-3.456 1.104-2.672 0-5.872-.16-9.6-.48v-3.24zm21.112.36c.848 0 1.808-.16 2.88-.48v-1.44h-3.48c-.24 0-.44.08-.6.24-.16.16-.24.36-.24.6v.24c0 .24.08.44.24.6.16.16.36.24.6.24h.6zm-4.44-9.36c2.928-.32 5.568-.48 7.92-.48 1.088 0 1.96.328 2.616.984.656.656.984 1.528.984 2.616V51h-3.72l-.24-1.2a8.83 8.83 0 01-2.328 1.104c-.784.224-1.448.336-1.992.336h-.84c-1.088 0-1.96-.328-2.616-.984-.656-.656-.984-1.528-.984-2.616v-1.08c0-1.088.328-1.96.984-2.616.656-.656 1.528-.984 2.616-.984h4.92V42c0-.24-.08-.44-.24-.6a.814.814 0 00-.6-.24c-1.04 0-2.192.048-3.456.144-1.248.096-2.256.168-3.024.216v-3zm19.673 7.68h-1.8V51h-4.2V38.28h4.2v4.68h1.92l1.32-2.64c.48-1.024 1.232-1.72 2.256-2.088.368-.128.72-.192 1.056-.192.544 0 1.04.04 1.488.12l.6.12v3.24h-.84c-.544 0-.944.24-1.2.72l-1.2 2.4 3.6 6.36h-4.56l-2.64-4.8zm13.431 1.68c.848 0 1.808-.16 2.88-.48v-1.44h-3.48c-.24 0-.44.08-.6.24-.16.16-.24.36-.24.6v.24c0 .24.08.44.24.6.16.16.36.24.6.24h.6zm-4.44-9.36c2.928-.32 5.568-.48 7.92-.48 1.088 0 1.96.328 2.616.984.656.656.984 1.528.984 2.616V51h-3.72l-.24-1.2a8.83 8.83 0 01-2.328 1.104c-.784.224-1.448.336-1.992.336h-.84c-1.088 0-1.96-.328-2.616-.984-.656-.656-.984-1.528-.984-2.616v-1.08c0-1.088.328-1.96.984-2.616.656-.656 1.528-.984 2.616-.984h4.92V42c0-.24-.08-.44-.24-.6a.814.814 0 00-.6-.24c-1.04 0-2.192.048-3.456.144-1.248.096-2.256.168-3.024.216v-3zm12.953 9.36c3.056.24 5.456.36 7.2.36.24 0 .44-.08.6-.24.16-.16.24-.36.24-.6v-.36c0-.24-.08-.44-.24-.6a.813.813 0 00-.6-.24h-5.28v-3h4.8c.24 0 .44-.08.6-.24.16-.16.24-.36.24-.6v-.24c0-.24-.08-.44-.24-.6a.814.814 0 00-.6-.24h-6.48v-3h7.92c1.072 0 1.936.32 2.592.96.672.624 1.008 1.328 1.008 2.112 0 1.6-.72 2.576-2.16 2.928.72.128 1.336.48 1.848 1.056.528.576.792 1.376.792 2.4s-.328 1.864-.984 2.52c-.656.656-1.528.984-2.616.984-2.672 0-5.552-.16-8.64-.48v-2.88zm18.956 0c.848 0 1.808-.16 2.88-.48v-1.44h-3.48c-.24 0-.44.08-.6.24-.16.16-.24.36-.24.6v.24c0 .24.08.44.24.6.16.16.36.24.6.24h.6zm-4.44-9.36c2.928-.32 5.568-.48 7.92-.48 1.088 0 1.96.328 2.616.984.656.656.984 1.528.984 2.616V51h-3.72l-.24-1.2a8.83 8.83 0 01-2.328 1.104c-.784.224-1.448.336-1.992.336h-.84c-1.088 0-1.96-.328-2.616-.984-.656-.656-.984-1.528-.984-2.616v-1.08c0-1.088.328-1.96.984-2.616.656-.656 1.528-.984 2.616-.984h4.92V42c0-.24-.08-.44-.24-.6a.814.814 0 00-.6-.24c-1.04 0-2.192.048-3.456.144-1.248.096-2.256.168-3.024.216v-3zm20.873 3V51h-4.2v-9.48h-3.96v-3.24h12.12v3.24h-3.96zm5.41 9.48V38.28h4.2v3.96h4.92c1.088 0 1.96.328 2.616.984.656.656.984 1.528.984 2.616v1.56c0 1.088-.328 1.96-.984 2.616-.656.656-1.528.984-2.616.984h-9.12zm7.68-3c.24 0 .44-.08.6-.24.16-.16.24-.36.24-.6v-1.08c0-.24-.08-.44-.24-.6a.814.814 0 00-.6-.24h-3.48V48h3.48zm19.545-3c-.08 1.12-.4 2.04-.96 2.76h4.2v-6.24h-3l-.24 3.48zm7.44-6.72v9.48h1.8v6.12h-3.984l-.24-2.88h-7.392l-.24 2.88h-3.984v-6.12h1.56c.64-.752 1-1.592 1.08-2.52l.48-6.96h10.92zm16.451 9.12c0 1.2-.344 2.144-1.032 2.832-.672.672-1.608 1.008-2.808 1.008h-5.52c-1.2 0-2.144-.336-2.832-1.008-.672-.688-1.008-1.632-1.008-2.832v-5.52c0-1.2.336-2.136 1.008-2.808.688-.688 1.632-1.032 2.832-1.032h5.52c1.2 0 2.136.344 2.808 1.032.688.672 1.032 1.608 1.032 2.808v5.52zm-4.2-5.16c0-.64-.32-.96-.96-.96h-2.88c-.64 0-.96.32-.96.96v4.8c0 .64.32.96.96.96h2.88c.64 0 .96-.32.96-.96v-4.8zm17.637 8.52c-2.992.32-5.632.48-7.92.48-1.088 0-1.96-.328-2.616-.984-.656-.656-.984-1.528-.984-2.616v-5.52c0-1.2.336-2.136 1.008-2.808.688-.688 1.632-1.032 2.832-1.032h7.68v3.24h-6.36c-.64 0-.96.32-.96.96v4.68c0 .24.08.44.24.6.16.16.36.24.6.24 1.44 0 3.6-.12 6.48-.36v3.12zm9.115-9.24V51h-4.2v-9.48h-3.96v-3.24h12.12v3.24h-3.96zm9.981 6.36c.848 0 1.808-.16 2.88-.48v-1.44h-3.48c-.24 0-.44.08-.6.24-.16.16-.24.36-.24.6v.24c0 .24.08.44.24.6.16.16.36.24.6.24h.6zm-4.44-9.36c2.928-.32 5.568-.48 7.92-.48 1.088 0 1.96.328 2.616.984.656.656.984 1.528.984 2.616V51h-3.72l-.24-1.2a8.83 8.83 0 01-2.328 1.104c-.784.224-1.448.336-1.992.336h-.84c-1.088 0-1.96-.328-2.616-.984-.656-.656-.984-1.528-.984-2.616v-1.08c0-1.088.328-1.96.984-2.616.656-.656 1.528-.984 2.616-.984h4.92V42c0-.24-.08-.44-.24-.6a.814.814 0 00-.6-.24c-1.04 0-2.192.048-3.456.144-1.248.096-2.256.168-3.024.216v-3zM235.222 51h-9.12V38.28h8.4c1.072 0 1.936.32 2.592.96.672.624 1.008 1.328 1.008 2.112s-.168 1.424-.504 1.92c-.336.496-.808.832-1.416 1.008.72.128 1.336.48 1.848 1.056.528.576.792 1.344.792 2.304 0 .96-.336 1.76-1.008 2.4-.656.64-1.52.96-2.592.96zm-.6-4.08c0-.24-.08-.44-.24-.6a.814.814 0 00-.6-.24h-3.48v2.04h3.48c.24 0 .44-.08.6-.24.16-.16.24-.36.24-.6v-.36zm-.72-4.92c0-.24-.08-.44-.24-.6a.814.814 0 00-.6-.24h-2.76v2.16h2.76c.24 0 .44-.08.6-.24.16-.16.24-.36.24-.6V42zm12.591 4.2h-1.8V51h-4.2V38.28h4.2v4.68h1.92l1.32-2.64c.48-1.024 1.232-1.72 2.256-2.088.368-.128.72-.192 1.056-.192.544 0 1.04.04 1.488.12l.6.12v3.24h-.84c-.544 0-.944.24-1.2.72l-1.2 2.4 3.6 6.36h-4.56l-2.64-4.8zm11.751 9.12c-.848 0-1.888-.08-3.12-.24v-3.12h2.16c.608 0 1-.168 1.176-.504.192-.336.16-.808-.096-1.416l-4.92-11.76h4.44l3 8.16 2.52-8.16h4.44l-4.8 13.2c-.464 1.264-1.064 2.216-1.8 2.856-.736.656-1.736.984-3 .984zm27.842-17.04v3.24h-6.12V51h-4.2V38.28h10.32zm5.759 9.6c.848 0 1.808-.16 2.88-.48v-1.44h-3.48c-.24 0-.44.08-.6.24-.16.16-.24.36-.24.6v.24c0 .24.08.44.24.6.16.16.36.24.6.24h.6zm-4.44-9.36c2.928-.32 5.568-.48 7.92-.48 1.088 0 1.96.328 2.616.984.656.656.984 1.528.984 2.616V51h-3.72l-.24-1.2a8.83 8.83 0 01-2.328 1.104c-.784.224-1.448.336-1.992.336h-.84c-1.088 0-1.96-.328-2.616-.984-.656-.656-.984-1.528-.984-2.616v-1.08c0-1.088.328-1.96.984-2.616.656-.656 1.528-.984 2.616-.984h4.92V42c0-.24-.08-.44-.24-.6a.814.814 0 00-.6-.24c-1.04 0-2.192.048-3.456.144-1.248.096-2.256.168-3.024.216v-3zm12.954 9.36c3.056.24 5.456.36 7.2.36.24 0 .44-.08.6-.24.16-.16.24-.36.24-.6v-.36c0-.24-.08-.44-.24-.6a.814.814 0 00-.6-.24h-5.28v-3h4.8c.24 0 .44-.08.6-.24.16-.16.24-.36.24-.6v-.24c0-.24-.08-.44-.24-.6a.814.814 0 00-.6-.24h-6.48v-3h7.92c1.072 0 1.936.32 2.592.96.672.624 1.008 1.328 1.008 2.112 0 1.6-.72 2.576-2.16 2.928.72.128 1.336.48 1.848 1.056.528.576.792 1.376.792 2.4s-.328 1.864-.984 2.52c-.656.656-1.528.984-2.616.984-2.672 0-5.552-.16-8.64-.48v-2.88zm18.955 0c.848 0 1.808-.16 2.88-.48v-1.44h-3.48c-.24 0-.44.08-.6.24-.16.16-.24.36-.24.6v.24c0 .24.08.44.24.6.16.16.36.24.6.24h.6zm-4.44-9.36c2.928-.32 5.568-.48 7.92-.48 1.088 0 1.96.328 2.616.984.656.656.984 1.528.984 2.616V51h-3.72l-.24-1.2a8.83 8.83 0 01-2.328 1.104c-.784.224-1.448.336-1.992.336h-.84c-1.088 0-1.96-.328-2.616-.984-.656-.656-.984-1.528-.984-2.616v-1.08c0-1.088.328-1.96.984-2.616.656-.656 1.528-.984 2.616-.984h4.92V42c0-.24-.08-.44-.24-.6a.814.814 0 00-.6-.24c-1.04 0-2.192.048-3.456.144-1.248.096-2.256.168-3.024.216v-3z" fill="#F1F1F1"/></g><defs><linearGradient id="paint0_linear_12_883" x1="0" y1="32" x2="361" y2="32" gradientUnits="userSpaceOnUse"><stop stop-color="#2194FF"/><stop offset=".522" stop-color="#81C0FB"/><stop offset="1" stop-color="#0079C2"/></linearGradient><linearGradient id="paint1_linear_12_883" x1="180.5" y1=".569" x2="180.5" y2="64.41" gradientUnits="userSpaceOnUse"><stop stop-color="#81C0FB"/><stop offset="1" stop-color="#fff"/></linearGradient><filter id="filter0_i_12_883" x="0" y="0" width="361" height="91" filterUnits="userSpaceOnUse" color-interpolation-filters="sRGB"><feFlood flood-opacity="0" result="BackgroundImageFix"/><feBlend in="SourceGraphic" in2="BackgroundImageFix" result="shape"/><feColorMatrix in="SourceAlpha" values="0 0 0 0 0 0 0 0 0 0 0 0 0 0 0 0 0 0 127 0" result="hardAlpha"/><feOffset dy="4"/><feGaussianBlur stdDeviation="6"/><feComposite in2="hardAlpha" operator="arithmetic" k2="-1" k3="1"/><feColorMatrix values="0 0 0 0 0 0 0 0 0 0 0 0 0 0 0 0 0 0 0.45 0"/><feBlend in2="shape" result="effect1_innerShadow_12_883"/></filter><filter id="filter1_d_12_883" x="34.132" y="34.2" width="293.262" height="23.12" filterUnits="userSpaceOnUse" color-interpolation-filters="sRGB"><feFlood flood-opacity="0" result="BackgroundImageFix"/><feColorMatrix in="SourceAlpha" values="0 0 0 0 0 0 0 0 0 0 0 0 0 0 0 0 0 0 127 0" result="hardAlpha"/><feOffset dx="1" dy="2"/><feComposite in2="hardAlpha" operator="out"/><feColorMatrix values="0 0 0 0 0 0 0 0 0 0 0 0 0 0 0 0 0 0 0.25 0"/><feBlend in2="BackgroundImageFix" result="effect1_dropShadow_12_883"/><feBlend in="SourceGraphic" in2="effect1_dropShadow_12_883" result="shape"/></filter></defs></svg>