<svg width="303" height="95" fill="none" xmlns="http://www.w3.org/2000/svg"><g filter="url(#filter0_d_8_664)"><g filter="url(#filter1_i_8_664)"><rect x="4" width="295" height="87" rx="11" fill="#2194FF"/></g><rect x="6" y="2" width="291" height="83" rx="9" stroke="url(#paint0_linear_8_664)" stroke-width="4"/><path opacity=".31" d="M292 30.18V18.355c-.054-2.25-.708-4.38-1.824-5.938-1.116-1.558-2.606-2.422-4.153-2.408H16.75c-.754 0-1.5.214-2.198.633-.697.418-1.33 1.033-1.865 1.808-.534.774-.958 1.695-1.247 2.708a11.73 11.73 0 00-.44 3.197v35.67s36.118-18.17 113.005-24.417c71.473-5.806 167.995.57 167.995.57z" fill="url(#paint1_linear_8_664)"/><path opacity=".15" d="M13 79.035h273.248c.755.001 1.503-.214 2.201-.633.698-.419 1.332-1.033 1.866-1.808.534-.776.958-1.696 1.247-2.71.289-1.013.438-2.1.438-3.196V53.026s-11.442 16.454-73.53 19.858C164.189 75.88 13 79.034 13 79.034z" fill="#fff"/></g><defs><linearGradient id="paint0_linear_8_664" x1="4" y1="32" x2="299" y2="32" gradientUnits="userSpaceOnUse"><stop stop-color="#2194FF"/><stop offset=".522" stop-color="#81C0FB"/><stop offset="1" stop-color="#108CFF"/></linearGradient><linearGradient id="paint1_linear_8_664" x1="151.5" y1=".576" x2="151.5" y2="64.44" gradientUnits="userSpaceOnUse"><stop stop-color="#81C0FB"/><stop offset="1" stop-color="#fff"/></linearGradient><filter id="filter0_d_8_664" x="0" y="0" width="303" height="95" filterUnits="userSpaceOnUse" color-interpolation-filters="sRGB"><feFlood flood-opacity="0" result="BackgroundImageFix"/><feColorMatrix in="SourceAlpha" values="0 0 0 0 0 0 0 0 0 0 0 0 0 0 0 0 0 0 127 0" result="hardAlpha"/><feOffset dy="4"/><feGaussianBlur stdDeviation="2"/><feComposite in2="hardAlpha" operator="out"/><feColorMatrix values="0 0 0 0 0 0 0 0 0 0 0 0 0 0 0 0 0 0 0.25 0"/><feBlend in2="BackgroundImageFix" result="effect1_dropShadow_8_664"/><feBlend in="SourceGraphic" in2="effect1_dropShadow_8_664" result="shape"/></filter><filter id="filter1_i_8_664" x="4" y="0" width="295" height="91" filterUnits="userSpaceOnUse" color-interpolation-filters="sRGB"><feFlood flood-opacity="0" result="BackgroundImageFix"/><feBlend in="SourceGraphic" in2="BackgroundImageFix" result="shape"/><feColorMatrix in="SourceAlpha" values="0 0 0 0 0 0 0 0 0 0 0 0 0 0 0 0 0 0 127 0" result="hardAlpha"/><feOffset dy="4"/><feGaussianBlur stdDeviation="6"/><feComposite in2="hardAlpha" operator="arithmetic" k2="-1" k3="1"/><feColorMatrix values="0 0 0 0 0 0 0 0 0 0 0 0 0 0 0 0 0 0 0.45 0"/><feBlend in2="shape" result="effect1_innerShadow_8_664"/></filter></defs></svg>