<svg width="77" height="25" fill="none" xmlns="http://www.w3.org/2000/svg"><path d="M64.5 6.238a6.27 6.27 0 00-6.262 6.263 6.27 6.27 0 006.262 6.262 6.27 6.27 0 006.262-6.262A6.27 6.27 0 0064.5 6.238zm0-1.84a1.222 1.222 0 01-1.222-1.222V1.222a1.222 1.222 0 112.444 0v1.954c0 .675-.548 1.222-1.222 1.222zm0 16.204c-.675 0-1.222.547-1.222 1.221v1.955a1.222 1.222 0 102.444 0v-1.954c0-.675-.548-1.222-1.222-1.222zM70.228 6.77a1.223 1.223 0 010-1.727l1.383-1.382a1.223 1.223 0 011.728 1.728L71.956 6.77a1.222 1.222 0 01-1.728 0zM58.77 18.23a1.22 1.22 0 00-1.727 0l-1.382 1.381a1.222 1.222 0 001.728 1.728l1.382-1.383a1.22 1.22 0 000-1.726zm13.832-5.73c0-.675.547-1.222 1.221-1.222h1.955a1.222 1.222 0 110 2.443h-1.955a1.221 1.221 0 01-1.221-1.221zm-16.204 0c0-.675-.547-1.222-1.222-1.222h-1.954a1.222 1.222 0 100 2.443h1.954c.675 0 1.222-.546 1.222-1.221zm13.83 5.73a1.223 1.223 0 011.728 0l1.383 1.382a1.22 1.22 0 11-1.728 1.727l-1.383-1.382a1.22 1.22 0 010-1.727zM58.77 6.77a1.222 1.222 0 000-1.727l-1.38-1.382a1.221 1.221 0 00-1.73 1.729l1.382 1.382a1.22 1.22 0 001.728 0z" fill="#2194FF"/><g opacity=".4" clip-path="url(#clip0_6_250)"><path d="M19.513 14.45a.703.703 0 00-.588.127 7.503 7.503 0 01-2.276 1.33 7.126 7.126 0 01-2.583.46 7.519 7.519 0 01-5.32-2.2 7.524 7.524 0 01-2.199-5.32c0-.87.154-1.715.41-2.482a6.87 6.87 0 011.227-2.2.653.653 0 00-.102-.921.703.703 0 00-.589-.128c-2.174.588-4.066 1.893-5.421 3.632A10.094 10.094 0 000 12.888c0 2.79 1.125 5.322 2.967 7.164a10.043 10.043 0 007.16 2.968c2.353 0 4.527-.819 6.266-2.175a10.087 10.087 0 003.58-5.603.62.62 0 00-.46-.793z" fill="#F1F1F1"/></g><g clip-path="url(#clip1_6_250)"><path d="M28.962 10.877c.065-.01.131-.016.198-.015h11.287l-.246-.114a2.286 2.286 0 01-.647-.458L36.39 7.125a1.185 1.185 0 01-.166-1.517 1.145 1.145 0 011.717-.15l5.724 5.725a1.145 1.145 0 010 1.62l-5.724 5.724a1.145 1.145 0 01-1.717-.115 1.185 1.185 0 01.166-1.517l3.16-3.17c.168-.169.36-.31.572-.419l.344-.154H29.223a1.185 1.185 0 01-1.208-.962 1.145 1.145 0 01.947-1.313z" fill="#2194FF"/></g><defs><clipPath id="clip0_6_250"><path fill="#fff" transform="translate(0 3.054)" d="M0 0h20v20.007H0z"/></clipPath><clipPath id="clip1_6_250"><path fill="#fff" transform="matrix(-1 0 0 1 44 4)" d="M0 0h16v16H0z"/></clipPath></defs></svg>