<svg width="76" height="23" fill="none" xmlns="http://www.w3.org/2000/svg"><g opacity=".4" clip-path="url(#clip0_6_251)" fill="#F1F1F1"><path d="M7.938 4.09a.645.645 0 00.645-.644V2.148a.645.645 0 00-1.29 0v1.298c0 .356.29.644.645.644zM2.09 6.451L.968 5.802a.644.644 0 10-.645 1.116l1.124.65a.644.644 0 10.645-1.117zm-.644 7.127l-1.124.649c-.569.328-.335 1.203.323 1.203.292 0 .366-.142 1.446-.736a.645.645 0 00-.645-1.116zM14.43 7.567l1.124-.649a.644.644 0 10-.645-1.116l-1.124.65a.644.644 0 10.645 1.115zm-7.794 4.638A6.122 6.122 0 0111.86 7.23a5.146 5.146 0 00-3.923-1.815 5.163 5.163 0 00-5.156 5.158 5.14 5.14 0 001.389 3.518 4.933 4.933 0 012.465-1.886z"/><path d="M17.14 11.488a4.846 4.846 0 00-4.481-3.021 4.835 4.835 0 00-4.834 4.786c-1.83.201-3.223 1.771-3.223 3.614a3.639 3.639 0 003.634 3.635c10.141-.01 9.586.026 9.763-.029a4.514 4.514 0 00-.858-8.985z"/></g><g clip-path="url(#clip1_6_251)" fill="#2194FF"><path d="M66 10.658a.367.367 0 00-.315-.178h-1.37a.367.367 0 00-.314.178l-.66 1.1a.367.367 0 000 .377l.66 1.1a.367.367 0 00.314.178h1.37a.367.367 0 00.314-.178l.66-1.1a.367.367 0 000-.377l-.66-1.1z"/><path d="M73.904 16.24l-1.467-.846 1.18-.433a.763.763 0 00.497-.884.735.735 0 00-.963-.507l-2.366.87-1.858-1.073.62-1.048a.733.733 0 000-.746l-.62-1.047 1.858-1.073 2.366.87a.733.733 0 00.976-.564.758.758 0 00-.504-.824L72.438 8.5l1.467-.848a.76.76 0 00.338-.953.734.734 0 00-1.037-.336l-1.503.867.214-1.236a.764.764 0 00-.47-.86.733.733 0 00-.968.567l-.43 2.484-1.87 1.08-.584-.99a.733.733 0 00-.63-.362h-1.232V5.69l1.907-1.588a.761.761 0 00.195-.958.733.733 0 00-1.104-.194l-.998.83V2.087a.76.76 0 00-.61-.763.733.733 0 00-.856.723v1.735l-.968-.807a.76.76 0 00-.976-.019.734.734 0 00.008 1.122l1.936 1.613v2.223h-1.232a.734.734 0 00-.631.36l-.585.99-1.87-1.08-.422-2.442a.763.763 0 00-.78-.648.734.734 0 00-.673.857l.22 1.279-1.466-.848a.76.76 0 00-.966.147.734.734 0 00.198 1.103l1.504.867-1.186.436a.759.759 0 00-.505.825.734.734 0 00.977.564l2.365-.87 1.858 1.073-.62 1.047a.734.734 0 000 .746l.62 1.048-1.858 1.073-2.365-.87a.732.732 0 00-.964.506.763.763 0 00.497.885l1.179.432-1.463.843a.763.763 0 00-.337.968.734.734 0 001.03.325l1.504-.867-.214 1.241a.747.747 0 00.715.9.733.733 0 00.722-.609l.43-2.483 1.87-1.08.584.99a.732.732 0 00.632.359h1.232v2.223l-1.907 1.59a.76.76 0 00-.194.957.733.733 0 001.104.194l.997-.832v1.695a.761.761 0 00.61.763.734.734 0 00.856-.724v-1.734l.998.831a.733.733 0 001.117-.218.756.756 0 00-.204-.93l-1.91-1.592V15.98h1.231a.733.733 0 00.631-.36l.585-.99 1.87 1.08.43 2.483a.733.733 0 00.721.609.753.753 0 00.716-.905l-.214-1.233 1.504.867a.732.732 0 001.031-.324.762.762 0 00-.335-.967zm-6.616-3.728l-.66 1.1a1.104 1.104 0 01-.943.534h-1.37a1.104 1.104 0 01-.943-.534l-.66-1.1a1.096 1.096 0 010-1.131l.66-1.1a1.106 1.106 0 01.943-.535h1.37a1.105 1.105 0 01.943.535l.66 1.1a1.095 1.095 0 010 1.131z"/></g><g clip-path="url(#clip2_6_251)"><path d="M30.962 11.823c.065-.01.131-.015.198-.014h11.287l-.246-.115a2.292 2.292 0 01-.647-.458L38.39 8.071a1.185 1.185 0 01-.166-1.517 1.145 1.145 0 011.717-.149l5.724 5.724a1.145 1.145 0 01.001 1.62l-5.725 5.724a1.145 1.145 0 01-1.717-.114 1.185 1.185 0 01.166-1.517l3.16-3.171c.168-.168.36-.31.572-.418l.344-.155H31.223a1.185 1.185 0 01-1.208-.961 1.145 1.145 0 01.947-1.314z" fill="#2194FF"/></g><defs><clipPath id="clip0_6_251"><path fill="#fff" d="M0 0h22v22.008H0z"/></clipPath><clipPath id="clip1_6_251"><path fill="#fff" transform="translate(54 .946)" d="M0 0h22v22H0z"/></clipPath><clipPath id="clip2_6_251"><path fill="#fff" transform="matrix(-1 0 0 1 46 4.946)" d="M0 0h16v16H0z"/></clipPath></defs></svg>