<svg width="361" height="87" viewBox="0 0 361 87" fill="none" xmlns="http://www.w3.org/2000/svg">
<g filter="url(#filter0_i_12_883)">
<rect width="361" height="87" rx="11" fill="#2194FF"/>
</g>
<rect x="2" y="2" width="357" height="83" rx="9" stroke="url(#paint0_linear_12_883)" stroke-width="4"/>
<path opacity="0.31" d="M352 30.1618V18.3426C351.935 16.0942 351.136 13.9649 349.773 12.4071C348.411 10.8493 346.592 9.98582 344.704 10.0002H16.0193C15.0986 9.99886 14.1868 10.2136 13.3357 10.6321C12.4847 11.0507 11.7112 11.6648 11.0594 12.4395C10.4076 13.2141 9.89024 14.1342 9.53689 15.147C9.18354 16.1599 9.0011 17.2457 9 18.3426V54C9 54 53.0868 35.8366 146.938 29.5923C234.181 23.7876 352 30.1618 352 30.1618Z" fill="url(#paint1_linear_12_883)"/>
<path opacity="0.15" d="M11 79H344.97C345.893 79.0013 346.807 78.7865 347.66 78.3677C348.513 77.949 349.288 77.3346 349.94 76.5596C350.593 75.7847 351.111 74.8644 351.465 73.8514C351.818 72.8385 352 71.7526 352 70.6561V53C352 53 338.016 69.4484 262.131 72.8518C195.787 75.8461 11 79 11 79Z" fill="white"/>
<g filter="url(#filter1_d_12_883)">
<path d="M34.1323 47.52C38.2123 47.76 41.0923 47.88 42.7723 47.88C43.1403 47.88 43.4283 47.776 43.6363 47.568C43.8603 47.344 43.9723 47.048 43.9723 46.68V45.72C43.9723 44.76 43.4923 44.28 42.5323 44.28H36.7723V40.92H42.0523C43.0123 40.92 43.4923 40.44 43.4923 39.48V39C43.4923 38.04 43.0123 37.56 42.0523 37.56H34.3723V34.2H43.2523C44.8203 34.2 45.9723 34.56 46.7083 35.28C47.4443 35.984 47.8123 37.064 47.8123 38.52C47.8123 39.48 47.5883 40.264 47.1403 40.872C46.7083 41.464 46.1323 41.88 45.4123 42.12C46.7083 42.472 47.5883 43.336 48.0523 44.712C48.2123 45.208 48.2923 45.784 48.2923 46.44V46.68C48.2923 48.248 47.9243 49.4 47.1883 50.136C46.4523 50.872 45.3003 51.24 43.7323 51.24C41.0603 51.24 37.8603 51.08 34.1323 50.76V47.52ZM55.2439 47.88C56.0919 47.88 57.0519 47.72 58.1239 47.4V45.96H54.6439C54.4039 45.96 54.2039 46.04 54.0439 46.2C53.8839 46.36 53.8039 46.56 53.8039 46.8V47.04C53.8039 47.28 53.8839 47.48 54.0439 47.64C54.2039 47.8 54.4039 47.88 54.6439 47.88H55.2439ZM50.8039 38.52C53.7319 38.2 56.3719 38.04 58.7239 38.04C59.8119 38.04 60.6839 38.368 61.3399 39.024C61.9959 39.68 62.3239 40.552 62.3239 41.64V51H58.6039L58.3639 49.8C57.6119 50.296 56.8359 50.664 56.0359 50.904C55.2519 51.128 54.5879 51.24 54.0439 51.24H53.2039C52.1159 51.24 51.2439 50.912 50.5879 50.256C49.9319 49.6 49.6039 48.728 49.6039 47.64V46.56C49.6039 45.472 49.9319 44.6 50.5879 43.944C51.2439 43.288 52.1159 42.96 53.2039 42.96H58.1239V42C58.1239 41.76 58.0439 41.56 57.8839 41.4C57.7239 41.24 57.5239 41.16 57.2839 41.16C56.2439 41.16 55.0919 41.208 53.8279 41.304C52.5799 41.4 51.5719 41.472 50.8039 41.52V38.52ZM70.4773 46.2H68.6773V51H64.4773V38.28H68.6773V42.96H70.5973L71.9173 40.32C72.3973 39.296 73.1493 38.6 74.1733 38.232C74.5413 38.104 74.8933 38.04 75.2293 38.04C75.7733 38.04 76.2693 38.08 76.7173 38.16L77.3173 38.28V41.52H76.4773C75.9333 41.52 75.5333 41.76 75.2773 42.24L74.0773 44.64L77.6773 51H73.1173L70.4773 46.2ZM83.908 47.88C84.756 47.88 85.716 47.72 86.788 47.4V45.96H83.308C83.068 45.96 82.868 46.04 82.708 46.2C82.548 46.36 82.468 46.56 82.468 46.8V47.04C82.468 47.28 82.548 47.48 82.708 47.64C82.868 47.8 83.068 47.88 83.308 47.88H83.908ZM79.468 38.52C82.396 38.2 85.036 38.04 87.388 38.04C88.476 38.04 89.348 38.368 90.004 39.024C90.66 39.68 90.988 40.552 90.988 41.64V51H87.268L87.028 49.8C86.276 50.296 85.5 50.664 84.7 50.904C83.916 51.128 83.252 51.24 82.708 51.24H81.868C80.78 51.24 79.908 50.912 79.252 50.256C78.596 49.6 78.268 48.728 78.268 47.64V46.56C78.268 45.472 78.596 44.6 79.252 43.944C79.908 43.288 80.78 42.96 81.868 42.96H86.788V42C86.788 41.76 86.708 41.56 86.548 41.4C86.388 41.24 86.188 41.16 85.948 41.16C84.908 41.16 83.756 41.208 82.492 41.304C81.244 41.4 80.236 41.472 79.468 41.52V38.52ZM92.4214 47.88C95.4774 48.12 97.8774 48.24 99.6214 48.24C99.8614 48.24 100.061 48.16 100.221 48C100.381 47.84 100.461 47.64 100.461 47.4V47.04C100.461 46.8 100.381 46.6 100.221 46.44C100.061 46.28 99.8614 46.2 99.6214 46.2H94.3414V43.2H99.1414C99.3814 43.2 99.5814 43.12 99.7414 42.96C99.9014 42.8 99.9814 42.6 99.9814 42.36V42.12C99.9814 41.88 99.9014 41.68 99.7414 41.52C99.5814 41.36 99.3814 41.28 99.1414 41.28H92.6614V38.28H100.581C101.653 38.28 102.517 38.6 103.173 39.24C103.845 39.864 104.181 40.568 104.181 41.352C104.181 42.952 103.461 43.928 102.021 44.28C102.741 44.408 103.357 44.76 103.869 45.336C104.397 45.912 104.661 46.712 104.661 47.736C104.661 48.76 104.333 49.6 103.677 50.256C103.021 50.912 102.149 51.24 101.061 51.24C98.3894 51.24 95.5094 51.08 92.4214 50.76V47.88ZM111.377 47.88C112.225 47.88 113.185 47.72 114.257 47.4V45.96H110.777C110.537 45.96 110.337 46.04 110.177 46.2C110.017 46.36 109.937 46.56 109.937 46.8V47.04C109.937 47.28 110.017 47.48 110.177 47.64C110.337 47.8 110.537 47.88 110.777 47.88H111.377ZM106.937 38.52C109.865 38.2 112.505 38.04 114.857 38.04C115.945 38.04 116.817 38.368 117.473 39.024C118.129 39.68 118.457 40.552 118.457 41.64V51H114.737L114.497 49.8C113.745 50.296 112.969 50.664 112.169 50.904C111.385 51.128 110.721 51.24 110.177 51.24H109.337C108.249 51.24 107.377 50.912 106.721 50.256C106.065 49.6 105.737 48.728 105.737 47.64V46.56C105.737 45.472 106.065 44.6 106.721 43.944C107.377 43.288 108.249 42.96 109.337 42.96H114.257V42C114.257 41.76 114.177 41.56 114.017 41.4C113.857 41.24 113.657 41.16 113.417 41.16C112.377 41.16 111.225 41.208 109.961 41.304C108.713 41.4 107.705 41.472 106.937 41.52V38.52ZM127.81 41.52V51H123.61V41.52H119.65V38.28H131.77V41.52H127.81ZM133.22 51V38.28H137.42V42.24H142.34C143.428 42.24 144.3 42.568 144.956 43.224C145.612 43.88 145.94 44.752 145.94 45.84V47.4C145.94 48.488 145.612 49.36 144.956 50.016C144.3 50.672 143.428 51 142.34 51H133.22ZM140.9 48C141.14 48 141.34 47.92 141.5 47.76C141.66 47.6 141.74 47.4 141.74 47.16V46.08C141.74 45.84 141.66 45.64 141.5 45.48C141.34 45.32 141.14 45.24 140.9 45.24H137.42V48H140.9ZM160.445 45C160.365 46.12 160.045 47.04 159.485 47.76H163.685V41.52H160.685L160.445 45ZM167.885 38.28V47.76H169.685V53.88H165.701L165.461 51H158.069L157.829 53.88H153.845V47.76H155.405C156.045 47.008 156.405 46.168 156.485 45.24L156.965 38.28H167.885ZM184.336 47.4C184.336 48.6 183.992 49.544 183.304 50.232C182.632 50.904 181.696 51.24 180.496 51.24H174.976C173.776 51.24 172.832 50.904 172.144 50.232C171.472 49.544 171.136 48.6 171.136 47.4V41.88C171.136 40.68 171.472 39.744 172.144 39.072C172.832 38.384 173.776 38.04 174.976 38.04H180.496C181.696 38.04 182.632 38.384 183.304 39.072C183.992 39.744 184.336 40.68 184.336 41.88V47.4ZM180.136 42.24C180.136 41.6 179.816 41.28 179.176 41.28H176.296C175.656 41.28 175.336 41.6 175.336 42.24V47.04C175.336 47.68 175.656 48 176.296 48H179.176C179.816 48 180.136 47.68 180.136 47.04V42.24ZM197.773 50.76C194.781 51.08 192.141 51.24 189.853 51.24C188.765 51.24 187.893 50.912 187.237 50.256C186.581 49.6 186.253 48.728 186.253 47.64V42.12C186.253 40.92 186.589 39.984 187.261 39.312C187.949 38.624 188.893 38.28 190.093 38.28H197.773V41.52H191.413C190.773 41.52 190.453 41.84 190.453 42.48V47.16C190.453 47.4 190.533 47.6 190.693 47.76C190.853 47.92 191.053 48 191.293 48C192.733 48 194.893 47.88 197.773 47.64V50.76ZM206.888 41.52V51H202.688V41.52H198.728V38.28H210.848V41.52H206.888ZM216.869 47.88C217.717 47.88 218.677 47.72 219.749 47.4V45.96H216.269C216.029 45.96 215.829 46.04 215.669 46.2C215.509 46.36 215.429 46.56 215.429 46.8V47.04C215.429 47.28 215.509 47.48 215.669 47.64C215.829 47.8 216.029 47.88 216.269 47.88H216.869ZM212.429 38.52C215.357 38.2 217.997 38.04 220.349 38.04C221.437 38.04 222.309 38.368 222.965 39.024C223.621 39.68 223.949 40.552 223.949 41.64V51H220.229L219.989 49.8C219.237 50.296 218.461 50.664 217.661 50.904C216.877 51.128 216.213 51.24 215.669 51.24H214.829C213.741 51.24 212.869 50.912 212.213 50.256C211.557 49.6 211.229 48.728 211.229 47.64V46.56C211.229 45.472 211.557 44.6 212.213 43.944C212.869 43.288 213.741 42.96 214.829 42.96H219.749V42C219.749 41.76 219.669 41.56 219.509 41.4C219.349 41.24 219.149 41.16 218.909 41.16C217.869 41.16 216.717 41.208 215.453 41.304C214.205 41.4 213.197 41.472 212.429 41.52V38.52ZM235.222 51H226.102V38.28H234.502C235.574 38.28 236.438 38.6 237.094 39.24C237.766 39.864 238.102 40.568 238.102 41.352C238.102 42.136 237.934 42.776 237.598 43.272C237.262 43.768 236.79 44.104 236.182 44.28C236.902 44.408 237.518 44.76 238.03 45.336C238.558 45.912 238.822 46.68 238.822 47.64C238.822 48.6 238.486 49.4 237.814 50.04C237.158 50.68 236.294 51 235.222 51ZM234.622 46.92C234.622 46.68 234.542 46.48 234.382 46.32C234.222 46.16 234.022 46.08 233.782 46.08H230.302V48.12H233.782C234.022 48.12 234.222 48.04 234.382 47.88C234.542 47.72 234.622 47.52 234.622 47.28V46.92ZM233.902 42C233.902 41.76 233.822 41.56 233.662 41.4C233.502 41.24 233.302 41.16 233.062 41.16H230.302V43.32H233.062C233.302 43.32 233.502 43.24 233.662 43.08C233.822 42.92 233.902 42.72 233.902 42.48V42ZM246.493 46.2H244.693V51H240.493V38.28H244.693V42.96H246.613L247.933 40.32C248.413 39.296 249.165 38.6 250.189 38.232C250.557 38.104 250.909 38.04 251.245 38.04C251.789 38.04 252.285 38.08 252.733 38.16L253.333 38.28V41.52H252.493C251.949 41.52 251.549 41.76 251.293 42.24L250.093 44.64L253.693 51H249.133L246.493 46.2ZM258.244 55.32C257.396 55.32 256.356 55.24 255.124 55.08V51.96H257.284C257.892 51.96 258.284 51.792 258.46 51.456C258.652 51.12 258.62 50.648 258.364 50.04L253.444 38.28H257.884L260.884 46.44L263.404 38.28H267.844L263.044 51.48C262.58 52.744 261.98 53.696 261.244 54.336C260.508 54.992 259.508 55.32 258.244 55.32ZM286.086 38.28V41.52H279.966V51H275.766V38.28H286.086ZM291.845 47.88C292.693 47.88 293.653 47.72 294.725 47.4V45.96H291.245C291.005 45.96 290.805 46.04 290.645 46.2C290.485 46.36 290.405 46.56 290.405 46.8V47.04C290.405 47.28 290.485 47.48 290.645 47.64C290.805 47.8 291.005 47.88 291.245 47.88H291.845ZM287.405 38.52C290.333 38.2 292.973 38.04 295.325 38.04C296.413 38.04 297.285 38.368 297.941 39.024C298.597 39.68 298.925 40.552 298.925 41.64V51H295.205L294.965 49.8C294.213 50.296 293.437 50.664 292.637 50.904C291.853 51.128 291.189 51.24 290.645 51.24H289.805C288.717 51.24 287.845 50.912 287.189 50.256C286.533 49.6 286.205 48.728 286.205 47.64V46.56C286.205 45.472 286.533 44.6 287.189 43.944C287.845 43.288 288.717 42.96 289.805 42.96H294.725V42C294.725 41.76 294.645 41.56 294.485 41.4C294.325 41.24 294.125 41.16 293.885 41.16C292.845 41.16 291.693 41.208 290.429 41.304C289.181 41.4 288.173 41.472 287.405 41.52V38.52ZM300.359 47.88C303.415 48.12 305.815 48.24 307.559 48.24C307.799 48.24 307.999 48.16 308.159 48C308.319 47.84 308.399 47.64 308.399 47.4V47.04C308.399 46.8 308.319 46.6 308.159 46.44C307.999 46.28 307.799 46.2 307.559 46.2H302.279V43.2H307.079C307.319 43.2 307.519 43.12 307.679 42.96C307.839 42.8 307.919 42.6 307.919 42.36V42.12C307.919 41.88 307.839 41.68 307.679 41.52C307.519 41.36 307.319 41.28 307.079 41.28H300.599V38.28H308.519C309.591 38.28 310.455 38.6 311.111 39.24C311.783 39.864 312.119 40.568 312.119 41.352C312.119 42.952 311.399 43.928 309.959 44.28C310.679 44.408 311.295 44.76 311.807 45.336C312.335 45.912 312.599 46.712 312.599 47.736C312.599 48.76 312.271 49.6 311.615 50.256C310.959 50.912 310.087 51.24 308.999 51.24C306.327 51.24 303.447 51.08 300.359 50.76V47.88ZM319.314 47.88C320.162 47.88 321.122 47.72 322.194 47.4V45.96H318.714C318.474 45.96 318.274 46.04 318.114 46.2C317.954 46.36 317.874 46.56 317.874 46.8V47.04C317.874 47.28 317.954 47.48 318.114 47.64C318.274 47.8 318.474 47.88 318.714 47.88H319.314ZM314.874 38.52C317.802 38.2 320.442 38.04 322.794 38.04C323.882 38.04 324.754 38.368 325.41 39.024C326.066 39.68 326.394 40.552 326.394 41.64V51H322.674L322.434 49.8C321.682 50.296 320.906 50.664 320.106 50.904C319.322 51.128 318.658 51.24 318.114 51.24H317.274C316.186 51.24 315.314 50.912 314.658 50.256C314.002 49.6 313.674 48.728 313.674 47.64V46.56C313.674 45.472 314.002 44.6 314.658 43.944C315.314 43.288 316.186 42.96 317.274 42.96H322.194V42C322.194 41.76 322.114 41.56 321.954 41.4C321.794 41.24 321.594 41.16 321.354 41.16C320.314 41.16 319.162 41.208 317.898 41.304C316.65 41.4 315.642 41.472 314.874 41.52V38.52Z" fill="#F1F1F1"/>
</g>
<defs>
<filter id="filter0_i_12_883" x="0" y="0" width="361" height="91" filterUnits="userSpaceOnUse" color-interpolation-filters="sRGB">
<feFlood flood-opacity="0" result="BackgroundImageFix"/>
<feBlend mode="normal" in="SourceGraphic" in2="BackgroundImageFix" result="shape"/>
<feColorMatrix in="SourceAlpha" type="matrix" values="0 0 0 0 0 0 0 0 0 0 0 0 0 0 0 0 0 0 127 0" result="hardAlpha"/>
<feOffset dy="4"/>
<feGaussianBlur stdDeviation="6"/>
<feComposite in2="hardAlpha" operator="arithmetic" k2="-1" k3="1"/>
<feColorMatrix type="matrix" values="0 0 0 0 0 0 0 0 0 0 0 0 0 0 0 0 0 0 0.45 0"/>
<feBlend mode="normal" in2="shape" result="effect1_innerShadow_12_883"/>
</filter>
<filter id="filter1_d_12_883" x="34.1323" y="34.2" width="293.262" height="23.12" filterUnits="userSpaceOnUse" color-interpolation-filters="sRGB">
<feFlood flood-opacity="0" result="BackgroundImageFix"/>
<feColorMatrix in="SourceAlpha" type="matrix" values="0 0 0 0 0 0 0 0 0 0 0 0 0 0 0 0 0 0 127 0" result="hardAlpha"/>
<feOffset dx="1" dy="2"/>
<feComposite in2="hardAlpha" operator="out"/>
<feColorMatrix type="matrix" values="0 0 0 0 0 0 0 0 0 0 0 0 0 0 0 0 0 0 0.25 0"/>
<feBlend mode="normal" in2="BackgroundImageFix" result="effect1_dropShadow_12_883"/>
<feBlend mode="normal" in="SourceGraphic" in2="effect1_dropShadow_12_883" result="shape"/>
</filter>
<linearGradient id="paint0_linear_12_883" x1="-3.40338e-07" y1="32" x2="361" y2="32" gradientUnits="userSpaceOnUse">
<stop stop-color="#2194FF"/>
<stop offset="0.522421" stop-color="#81C0FB"/>
<stop offset="1" stop-color="#0079C2"/>
</linearGradient>
<linearGradient id="paint1_linear_12_883" x1="180.5" y1="0.568788" x2="180.5" y2="64.4105" gradientUnits="userSpaceOnUse">
<stop stop-color="#81C0FB"/>
<stop offset="1" stop-color="white"/>
</linearGradient>
</defs>
</svg>
