<svg width="303" height="95" viewBox="0 0 303 95" fill="none" xmlns="http://www.w3.org/2000/svg">
<g filter="url(#filter0_d_8_664)">
<g filter="url(#filter1_i_8_664)">
<rect x="4" width="295" height="87" rx="11" fill="#2194FF"/>
</g>
<rect x="6" y="2" width="291" height="83" rx="9" stroke="url(#paint0_linear_8_664)" stroke-width="4"/>
<path opacity="0.31" d="M292 30.1792V18.3558C291.946 16.1066 291.292 13.9766 290.176 12.4182C289.06 10.8599 287.57 9.99607 286.023 10.0104H16.7505C15.9963 10.0091 15.2492 10.2239 14.552 10.6426C13.8548 11.0613 13.2211 11.6757 12.6871 12.4506C12.1532 13.2255 11.7293 14.1459 11.4398 15.1591C11.1504 16.1723 11.0009 17.2585 11 18.3558V54.0259C11 54.0259 47.1178 35.856 124.005 29.6095C195.478 23.8027 292 30.1792 292 30.1792Z" fill="url(#paint1_linear_8_664)"/>
<path opacity="0.15" d="M13 79.0347H286.248C287.003 79.036 287.751 78.8211 288.449 78.4022C289.147 77.9833 289.781 77.3687 290.315 76.5935C290.849 75.8183 291.273 74.8977 291.562 73.8843C291.851 72.871 292 71.7848 292 70.6878V53.0256C292 53.0256 280.558 69.4797 218.47 72.8844C164.189 75.8797 13 79.0347 13 79.0347Z" fill="white"/>
</g>
<defs>
<filter id="filter0_d_8_664" x="0" y="0" width="303" height="95" filterUnits="userSpaceOnUse" color-interpolation-filters="sRGB">
<feFlood flood-opacity="0" result="BackgroundImageFix"/>
<feColorMatrix in="SourceAlpha" type="matrix" values="0 0 0 0 0 0 0 0 0 0 0 0 0 0 0 0 0 0 127 0" result="hardAlpha"/>
<feOffset dy="4"/>
<feGaussianBlur stdDeviation="2"/>
<feComposite in2="hardAlpha" operator="out"/>
<feColorMatrix type="matrix" values="0 0 0 0 0 0 0 0 0 0 0 0 0 0 0 0 0 0 0.25 0"/>
<feBlend mode="normal" in2="BackgroundImageFix" result="effect1_dropShadow_8_664"/>
<feBlend mode="normal" in="SourceGraphic" in2="effect1_dropShadow_8_664" result="shape"/>
</filter>
<filter id="filter1_i_8_664" x="4" y="0" width="295" height="91" filterUnits="userSpaceOnUse" color-interpolation-filters="sRGB">
<feFlood flood-opacity="0" result="BackgroundImageFix"/>
<feBlend mode="normal" in="SourceGraphic" in2="BackgroundImageFix" result="shape"/>
<feColorMatrix in="SourceAlpha" type="matrix" values="0 0 0 0 0 0 0 0 0 0 0 0 0 0 0 0 0 0 127 0" result="hardAlpha"/>
<feOffset dy="4"/>
<feGaussianBlur stdDeviation="6"/>
<feComposite in2="hardAlpha" operator="arithmetic" k2="-1" k3="1"/>
<feColorMatrix type="matrix" values="0 0 0 0 0 0 0 0 0 0 0 0 0 0 0 0 0 0 0.45 0"/>
<feBlend mode="normal" in2="shape" result="effect1_innerShadow_8_664"/>
</filter>
<linearGradient id="paint0_linear_8_664" x1="4" y1="32" x2="299" y2="32" gradientUnits="userSpaceOnUse">
<stop stop-color="#2194FF"/>
<stop offset="0.522421" stop-color="#81C0FB"/>
<stop offset="1" stop-color="#108CFF"/>
</linearGradient>
<linearGradient id="paint1_linear_8_664" x1="151.5" y1="0.575693" x2="151.5" y2="64.4401" gradientUnits="userSpaceOnUse">
<stop stop-color="#81C0FB"/>
<stop offset="1" stop-color="white"/>
</linearGradient>
</defs>
</svg>
